<svg xmlns="http://www.w3.org/2000/svg" viewBox="0 0 564 238"><defs><style>.a{fill:#8d44bd;}.b{fill:#449fbd;}.c{fill:#78bd44;}.d{fill:#bd4444;}.e{fill:#37eff2;}.f{fill:#f2c737;}</style></defs><title>dumb</title><path class="a" d="M14.51,174l-8-8V25l8-8H77.3A37.77,37.77,0,0,1,105,28.68,38.24,38.24,0,0,1,116.51,56.4v78.2A38.24,38.24,0,0,1,105,162.32,37.77,37.77,0,0,1,77.3,174Zm47-31.6A7.15,7.15,0,0,0,67,140.1a7.37,7.37,0,0,0,2.31-5.5V56.4a7.72,7.72,0,0,0-7.79-7.8h-7.6v93.8Z"/><path class="b" d="M171.3,174a39.61,39.61,0,0,1-39.39-39.4V25l8-8H171.3l8,8V134.6a7.35,7.35,0,0,0,2.32,5.49,6.92,6.92,0,0,0,5.29,2.31,7.14,7.14,0,0,0,5.47-2.3,7.38,7.38,0,0,0,2.32-5.5V25l8-8h31.21l8,8V134.6a38.21,38.21,0,0,1-11.53,27.72A37.73,37.73,0,0,1,202.7,174Z"/><polygon class="c" points="390.7 174 382.7 166 382.7 99.21 341.46 140.45 330.13 140.44 289.09 99.26 289.09 166 281.09 174 265.3 174 257.3 166 257.3 25 265.3 17 272.63 17 278.28 19.34 339.55 80.44 400.64 19.34 406.3 17 422.09 17 430.09 25 430.09 166 422.09 174 390.7 174"/><path class="d" d="M453.3,174l-8-8V25l8-8h62.79a37.73,37.73,0,0,1,27.68,11.68A38.21,38.21,0,0,1,555.3,56.4v7.7c0,11.44-3.41,20.64-10.14,27.38a35.69,35.69,0,0,1-4.33,3.65,32.68,32.68,0,0,1,4.85,4.78,41.51,41.51,0,0,1,9.62,27v7.7a38.24,38.24,0,0,1-11.52,27.72A37.77,37.77,0,0,1,516.09,174Zm47-31.6a7.14,7.14,0,0,0,5.48-2.31,7.34,7.34,0,0,0,2.31-5.49V119c0-6-1.67-7.6-7.79-7.6h-7.6v31Zm0-62.8a7.25,7.25,0,0,0,5.53-2.26A7,7,0,0,0,508.09,72V56.4a7.72,7.72,0,0,0-7.79-7.8h-7.6v31Z"/><polygon class="e" points="8.6 226 6.81 223.09 23.63 190.09 25.41 189 32.76 189 34.54 191.91 21.07 218.35 28.81 218.35 30.59 221.26 28.73 224.91 26.95 226 8.6 226"/><path class="e" d="M41.6,226c-3.5,0-5.12-1.77-5.86-3.26-1-2-.86-4.38.47-7l9.33-18.3a15.64,15.64,0,0,1,5.5-5.95A13.49,13.49,0,0,1,58.41,189h7.35c3.51,0,5.11,1.8,5.84,3.31,1,2,.81,4.38-.5,6.95l-9.33,18.3a15.83,15.83,0,0,1-5.46,5.93A13.4,13.4,0,0,1,48.94,226Zm5.29-7.67.22,0a3.83,3.83,0,0,0,2.06-.76,5,5,0,0,0,1.74-1.84l9.32-18.31a1.85,1.85,0,0,0,.25-.77l-.28,0a3.78,3.78,0,0,0-2,.75,4.92,4.92,0,0,0-1.73,1.86l-9.33,18.3A1.6,1.6,0,0,0,46.89,218.33Z"/><path class="e" d="M78.29,226l-.41-.67a16.78,16.78,0,0,1-4.78.67H63.6l-1.79-2.91,16.82-33L80.41,189h7.35l1.78,2.91L76.07,218.35h.39a3.86,3.86,0,0,0,2.06-.76,5,5,0,0,0,1.73-1.84l13.07-25.66L95.11,189h7.3l1.78,2.91L90.72,218.35h.43a3.8,3.8,0,0,0,2-.76,5.11,5.11,0,0,0,1.74-1.84L108,190.09l1.78-1.09h7.35l1.78,2.91-10.43,20.46a25.52,25.52,0,0,1-8.85,9.6,21.53,21.53,0,0,1-11.86,4Z"/><path class="e" d="M133.29,226l-1.78-2.91,5.6-11a1.67,1.67,0,0,0,.24-.72l-.29,0h-2.42l-6.91,13.56L125.94,226H118.6l-1.79-2.91,16.82-33,1.78-1.09h14.7c3.51,0,5.11,1.8,5.84,3.31,1,2,.81,4.38-.5,6.95l-1,2a17,17,0,0,1-4.61,5.38c-.25.2-.5.38-.76.56a2.37,2.37,0,0,1,.19.34,4.74,4.74,0,0,1-.27,4.41l-6.61,13L140.6,226Zm5.65-22.35a3.87,3.87,0,0,0,2.07-.74,4.82,4.82,0,0,0,1.71-1.82l1.86-3.65a1.85,1.85,0,0,0,.25-.77l-.28,0h-2.43l-3.56,7Z"/><polygon class="e" points="151.64 226 149.86 223.09 166.67 190.09 168.46 189 175.76 189 177.54 191.91 160.73 224.91 158.94 226 151.64 226"/><path class="e" d="M177.29,226c-3.24,0-5.38-1-6.35-2.93s-.61-4.23,1-7.33l1.78-1.09h3.69l1.79,2.91s-.37.71-.38.76a2.38,2.38,0,0,0,.36,0,3.54,3.54,0,0,0,2.12-.58,5.5,5.5,0,0,0,1.64-2c.31-.63.21-.9.17-1l-3.34-8.7a8.06,8.06,0,0,1,.57-6.82l.92-1.8a15.91,15.91,0,0,1,5.46-5.93,13.49,13.49,0,0,1,7.42-2.51h3.65c2.84,0,4.82.83,5.88,2.48,1.19,1.84,1,4.36-.45,7.69l-1.83,1.18h-3.65l-1.87-2.71a5.71,5.71,0,0,0,.29-1h0a4.13,4.13,0,0,0-2.3.61,5.08,5.08,0,0,0-1.68,2,1.28,1.28,0,0,0-.16,1l3.33,8.65a8.15,8.15,0,0,1-.57,6.82l-.92,1.8a15.91,15.91,0,0,1-5.46,5.93,13.49,13.49,0,0,1-7.42,2.51Z"/><path class="e" d="M202.94,226c-3.49,0-5.11-1.77-5.86-3.26-1-2-.85-4.38.48-7l9.32-18.3a15.83,15.83,0,0,1,5.44-5.92,13.37,13.37,0,0,1,7.44-2.52h7.35c2.83,0,4.81.83,5.87,2.48,1.19,1.85,1,4.36-.49,7.7l-1.82,1.17H227l-1.86-2.73a5.21,5.21,0,0,0,.29-1h-3.89a3.78,3.78,0,0,0-2,.75,4.84,4.84,0,0,0-1.73,1.86l-9.33,18.3a1.49,1.49,0,0,0-.23.77l.22,0h3.69c.53,0,2.14,0,3.83-2.75l1.71-.95h3.65l1.74,3c-3.16,5.55-7.46,8.36-12.79,8.36Z"/><path class="e" d="M219.42,230.44l1.88-3.7,1.73-1.09a4.16,4.16,0,0,0,1.52-.3l-1.39-2.26,3.74-7.35,1.79-1.09H236l1.79,2.91-3.75,7.35c-2.52,5-6.78,7.79-12.66,8.43Z"/><polygon class="f" points="250.59 226 248.81 223.09 265.63 190.09 267.41 189 274.76 189 276.54 191.91 263.07 218.35 270.8 218.35 272.59 221.26 270.73 224.91 268.94 226 250.59 226"/><path class="f" d="M283.59,226c-3.49,0-5.11-1.77-5.86-3.26-1-2-.85-4.38.48-7l9.32-18.3a15.67,15.67,0,0,1,5.51-5.95,13.49,13.49,0,0,1,7.37-2.49h7.35c3.51,0,5.11,1.8,5.84,3.31,1,2,.81,4.38-.5,6.95l-9.33,18.3a15.83,15.83,0,0,1-5.46,5.93,13.4,13.4,0,0,1-7.37,2.51Zm5.3-7.67.22,0a3.83,3.83,0,0,0,2.06-.76,5.06,5.06,0,0,0,1.74-1.85l9.32-18.3a1.81,1.81,0,0,0,.25-.77l-.28,0a3.78,3.78,0,0,0-2,.75,4.84,4.84,0,0,0-1.73,1.86l-9.33,18.3A1.6,1.6,0,0,0,288.89,218.33Z"/><path class="f" d="M320.29,226l-.41-.67a16.83,16.83,0,0,1-4.78.67h-9.51l-1.78-2.91,16.82-33,1.78-1.09h7.35l1.78,2.91-13.47,26.44h.39a3.86,3.86,0,0,0,2.06-.76,4.94,4.94,0,0,0,1.73-1.85l13.07-25.65,1.79-1.09h7.3l1.78,2.91-13.47,26.44h.43a3.8,3.8,0,0,0,2-.76,5.06,5.06,0,0,0,1.74-1.85L350,190.09l1.79-1.09h7.35l1.78,2.91-10.43,20.46a25.68,25.68,0,0,1-8.85,9.6,21.53,21.53,0,0,1-11.86,4Z"/><path class="f" d="M375.29,226l-1.78-2.91,5.6-11a1.61,1.61,0,0,0,.23-.72,1.52,1.52,0,0,0-.28,0h-2.43l-6.91,13.56L367.94,226h-7.35l-1.78-2.91,16.82-33,1.78-1.09h14.7c3.51,0,5.11,1.8,5.84,3.31,1,2,.81,4.38-.5,6.95l-1,2a17,17,0,0,1-4.62,5.38c-.24.2-.49.38-.75.56.07.12.14.23.19.34a4.77,4.77,0,0,1-.27,4.41l-6.61,13L382.59,226Zm5.65-22.35a3.9,3.9,0,0,0,2.07-.74,4.82,4.82,0,0,0,1.71-1.82l1.86-3.65a1.81,1.81,0,0,0,.25-.77l-.28,0h-2.43l-3.57,7Z"/><polygon class="f" points="389.94 226 388.16 223.09 404.97 190.09 406.76 189 425.1 189 426.89 191.91 425.02 195.56 423.24 196.65 413.47 196.65 409.9 203.65 413.99 203.65 415.77 206.56 413.89 210.26 412.1 211.35 405.98 211.35 402.42 218.35 410.15 218.35 411.93 221.26 410.07 224.91 408.29 226 389.94 226"/><path class="f" d="M430.29,226l-.41-.67a16.83,16.83,0,0,1-4.78.67h-9.51l-1.78-2.91,16.82-33,1.78-1.09h7.35l1.78,2.91-13.47,26.44h.39a3.86,3.86,0,0,0,2.06-.76,4.94,4.94,0,0,0,1.73-1.85l13.07-25.65L447.1,189h7.31l1.78,2.91-13.47,26.44h.43a3.8,3.8,0,0,0,2-.76,4.94,4.94,0,0,0,1.73-1.85L460,190.09l1.79-1.09h7.34l1.79,2.91-10.43,20.46a25.68,25.68,0,0,1-8.85,9.6,21.56,21.56,0,0,1-11.86,4Z"/><path class="f" d="M474.29,226l-1.78-2.91,6-11.74h-2.86l-6.91,13.56L466.94,226h-7.35l-1.78-2.91,13.07-25.65a15.67,15.67,0,0,1,5.51-5.95,13.44,13.44,0,0,1,7.37-2.49h7.34c3.52,0,5.12,1.8,5.85,3.31,1,2,.81,4.38-.5,6.95l-13.07,25.65L481.59,226Zm8.12-22.35,3.17-6.21a1.85,1.85,0,0,0,.25-.77l-.28,0a3.75,3.75,0,0,0-2,.75,5,5,0,0,0-1.74,1.86l-2.24,4.39Z"/><path class="f" d="M503.64,226l-1.79-2.91,5.61-11a1.65,1.65,0,0,0,.23-.72l-.28,0H505l-6.91,13.56L496.29,226h-7.35l-1.78-2.91,16.81-33,1.79-1.09h14.69c3.51,0,5.12,1.8,5.84,3.31,1,2,.81,4.38-.5,6.95l-1,2a17.2,17.2,0,0,1-4.62,5.38c-.24.2-.5.38-.75.56l.19.34a4.77,4.77,0,0,1-.27,4.41l-6.62,13L510.94,226Zm5.65-22.35a3.87,3.87,0,0,0,2.06-.74,4.82,4.82,0,0,0,1.71-1.82l1.86-3.65a1.85,1.85,0,0,0,.25-.77l-.28,0h-2.42l-3.57,7Z"/><path class="f" d="M518.29,226l-1.78-2.91,16.81-33L535.1,189h14.7c3.51,0,5.11,1.8,5.84,3.31,1,2,.81,4.38-.5,6.95l-9.32,18.3a15.86,15.86,0,0,1-5.47,5.93A13.4,13.4,0,0,1,533,226Zm12.86-7.65a3.83,3.83,0,0,0,2.06-.76,5.06,5.06,0,0,0,1.74-1.85l9.32-18.3a1.85,1.85,0,0,0,.25-.77l-.28,0h-2.42l-11.06,21.7Z"/></svg>